<svg width="27" height="27" viewBox="0 0 27 27" fill="none" xmlns="http://www.w3.org/2000/svg">
<path d="M24.2424 15.6683C24.2424 15.9445 24.4663 16.1683 24.7424 16.1683C25.0186 16.1683 25.2424 15.9445 25.2424 15.6683H24.2424ZM24.2424 10.5474V15.6683H25.2424V10.5474H24.2424Z" fill="white"/>
<path d="M2.20422 10.5128L13.5455 3.93213L24.7957 10.5128L21.3859 12.4804L21.4312 18.5469L13.5455 23.068L5.64163 18.5469V12.4804L2.20422 10.5128Z" fill="white"/>
<path d="M2.20422 10.5128L1.95329 10.0803C1.79866 10.17 1.7037 10.3355 1.70423 10.5142C1.70475 10.693 1.80068 10.8579 1.95583 10.9467L2.20422 10.5128ZM13.5455 3.93213L13.798 3.50054C13.6426 3.40964 13.4503 3.4093 13.2946 3.49966L13.5455 3.93213ZM24.7957 10.5128L25.0456 10.9458C25.1999 10.8568 25.2952 10.6924 25.2957 10.5142C25.2962 10.3361 25.2019 10.1711 25.0482 10.0812L24.7957 10.5128ZM13.3002 10.0128C13.024 10.0128 12.8002 10.2366 12.8002 10.5128C12.8002 10.7889 13.024 11.0128 13.3002 11.0128V10.0128ZM13.5455 17.0048L13.2971 17.4387C13.4516 17.5271 13.6413 17.5268 13.7954 17.4379L13.5455 17.0048ZM5.64163 18.5469H5.14163C5.14163 18.7262 5.23769 18.8918 5.39337 18.9809L5.64163 18.5469ZM13.5455 23.068L13.2973 23.502C13.4512 23.5901 13.6403 23.59 13.7942 23.5018L13.5455 23.068ZM21.4312 18.5469L21.6799 18.9806C21.8365 18.8909 21.9325 18.7237 21.9312 18.5432L21.4312 18.5469ZM21.3859 12.4804L21.136 12.0473L21.3859 12.4804ZM2.45516 10.9452L13.7965 4.3646L13.2946 3.49966L1.95329 10.0803L2.45516 10.9452ZM13.2931 4.36372L24.5433 10.9443L25.0482 10.0812L13.798 3.50054L13.2931 4.36372ZM24.7957 10.0128H13.3002V11.0128H24.7957V10.0128ZM13.7939 16.5709L5.89002 12.0465L5.39323 12.9143L13.2971 17.4387L13.7939 16.5709ZM5.89002 12.0465L2.45262 10.0788L1.95583 10.9467L5.39323 12.9143L5.89002 12.0465ZM5.14163 12.4804V18.5469H6.14163V12.4804H5.14163ZM5.39337 18.9809L13.2973 23.502L13.7938 22.634L5.88989 18.1129L5.39337 18.9809ZM13.7942 23.5018L21.6799 18.9806L21.1825 18.1131L13.2968 22.6342L13.7942 23.5018ZM24.5458 10.0797L21.136 12.0473L21.6358 12.9135L25.0456 10.9458L24.5458 10.0797ZM21.136 12.0473L13.2956 16.5717L13.7954 17.4379L21.6358 12.9135L21.136 12.0473ZM21.9312 18.5432L21.8859 12.4767L20.8859 12.4841L20.9312 18.5506L21.9312 18.5432Z" fill="#191919"/>
</svg>
