<svg width="533" height="209" viewBox="0 0 533 209" fill="none" xmlns="http://www.w3.org/2000/svg">
<path d="M75.3683 173.429C65.0241 173.429 55.7144 171.266 47.4392 166.94C39.2579 162.521 32.8163 156.408 28.1145 148.603C23.4126 140.798 21.0617 131.958 21.0617 122.084C21.0617 112.211 23.4126 103.371 28.1145 95.5659C32.8163 87.7608 39.2579 81.6954 47.4392 77.3697C55.7144 72.9499 65.0241 70.7401 75.3683 70.7401C84.3959 70.7401 92.5301 72.3387 99.771 75.536C107.012 78.7332 113.03 83.3411 117.826 89.3595L100.053 105.44C93.6585 97.7288 85.9004 93.8733 76.7788 93.8733C71.4187 93.8733 66.6228 95.0487 62.3911 97.3997C58.2535 99.7506 55.0092 103.089 52.6582 107.415C50.4013 111.646 49.2729 116.536 49.2729 122.084C49.2729 127.633 50.4013 132.57 52.6582 136.895C55.0092 141.127 58.2535 144.418 62.3911 146.769C66.6228 149.12 71.4187 150.296 76.7788 150.296C85.9004 150.296 93.6585 146.44 100.053 138.729L117.826 154.809C113.03 160.828 107.012 165.436 99.771 168.633C92.5301 171.83 84.3959 173.429 75.3683 173.429ZM224.222 72.7148V171.454H196.293V132.946H158.208V171.454H130.279V72.7148H158.208V109.813H196.293V72.7148H224.222ZM323.196 149.873V171.454H243.923V72.7148H321.362V94.2964H271.57V110.941H315.438V131.817H271.57V149.873H323.196ZM373.394 173.429C365.401 173.429 357.643 172.441 350.12 170.467C342.597 168.492 336.485 165.859 331.783 162.568L340.952 141.973C345.371 144.889 350.496 147.239 356.327 149.026C362.157 150.813 367.893 151.706 373.535 151.706C384.256 151.706 389.616 149.026 389.616 143.666C389.616 140.845 388.064 138.776 384.961 137.46C381.952 136.049 377.062 134.591 370.291 133.087C362.862 131.488 356.656 129.796 351.672 128.009C346.688 126.128 342.409 123.166 338.836 119.122C335.262 115.079 333.476 109.625 333.476 102.76C333.476 96.7414 335.121 91.3342 338.412 86.5383C341.704 81.6484 346.594 77.7929 353.082 74.9717C359.665 72.1506 367.705 70.7401 377.203 70.7401C383.691 70.7401 390.086 71.4924 396.387 72.997C402.687 74.4075 408.235 76.5234 413.031 79.3445L404.427 100.08C395.023 95.0017 385.901 92.4627 377.062 92.4627C371.514 92.4627 367.47 93.309 364.931 95.0017C362.392 96.6003 361.123 98.7162 361.123 101.349C361.123 103.982 362.627 105.957 365.636 107.274C368.646 108.59 373.488 109.954 380.165 111.364C387.688 112.963 393.895 114.703 398.784 116.583C403.768 118.37 408.047 121.285 411.621 125.329C415.288 129.278 417.122 134.685 417.122 141.55C417.122 147.475 415.476 152.835 412.185 157.631C408.894 162.427 403.957 166.282 397.374 169.197C390.791 172.018 382.798 173.429 373.394 173.429ZM464.723 173.429C456.73 173.429 448.971 172.441 441.448 170.467C433.925 168.492 427.813 165.859 423.111 162.568L432.28 141.973C436.7 144.889 441.825 147.239 447.655 149.026C453.485 150.813 459.222 151.706 464.864 151.706C475.584 151.706 480.944 149.026 480.944 143.666C480.944 140.845 479.393 138.776 476.289 137.46C473.28 136.049 468.39 134.591 461.619 133.087C454.191 131.488 447.984 129.796 443 128.009C438.016 126.128 433.737 123.166 430.164 119.122C426.591 115.079 424.804 109.625 424.804 102.76C424.804 96.7414 426.449 91.3342 429.741 86.5383C433.032 81.6484 437.922 77.7929 444.411 74.9717C450.993 72.1506 459.033 70.7401 468.531 70.7401C475.02 70.7401 481.414 71.4924 487.715 72.997C494.015 74.4075 499.564 76.5234 504.359 79.3445L495.755 100.08C486.351 95.0017 477.23 92.4627 468.39 92.4627C462.842 92.4627 458.798 93.309 456.259 95.0017C453.72 96.6003 452.451 98.7162 452.451 101.349C452.451 103.982 453.955 105.957 456.965 107.274C459.974 108.59 464.817 109.954 471.493 111.364C479.016 112.963 485.223 114.703 490.113 116.583C495.097 118.37 499.375 121.285 502.949 125.329C506.616 129.278 508.45 134.685 508.45 141.55C508.45 147.475 506.804 152.835 503.513 157.631C500.222 162.427 495.285 166.282 488.702 169.197C482.12 172.018 474.126 173.429 464.723 173.429Z" fill="white"/>
<path d="M42.4152 21.5146V56.5702L42.767 56.5296C64.5332 54.0145 86.5175 54.0281 108.281 56.5702V21.6523L91.7903 38.0394L75.3688 21.6868L58.9129 38.0394L42.4152 21.5146Z" fill="white"/>
<path d="M108.287 63.1041V53.7622L76.1591 54.6479C91.2653 55.6904 98.0294 56.5283 108.287 63.1041Z" fill="white"/>
<path d="M42.4167 63.1041V53.7622L74.5016 54.6198C59.3953 55.6623 52.6745 56.5283 42.4167 63.1041Z" fill="white"/>
</svg>
