<svg width="25" height="25" viewBox="0 0 25 25" fill="none" xmlns="http://www.w3.org/2000/svg">
<path d="M18.5779 8.02466C18.5779 6.43336 17.9457 4.90724 16.8205 3.78202C15.6953 2.6568 14.1692 2.02466 12.5779 2.02466C10.9866 2.02466 9.46046 2.6568 8.33524 3.78202C7.21002 4.90724 6.57788 6.43336 6.57788 8.02466C6.57788 15.0247 3.57788 17.0247 3.57788 17.0247H21.5779C21.5779 17.0247 18.5779 15.0247 18.5779 8.02466Z" stroke="white" stroke-linecap="round" stroke-linejoin="round"/>
<path d="M14.3079 21.0247C14.1321 21.3277 13.8797 21.5793 13.5761 21.7542C13.2725 21.9291 12.9283 22.0211 12.5779 22.0211C12.2275 22.0211 11.8833 21.9291 11.5797 21.7542C11.2761 21.5793 11.0237 21.3277 10.8479 21.0247" stroke="white" stroke-linecap="round" stroke-linejoin="round"/>
</svg>
