<svg width="375" height="254" viewBox="0 0 375 254" fill="none" xmlns="http://www.w3.org/2000/svg">
    <defs>
        <linearGradient id="paint0_linear_176_5043" x1="267.476" y1="88.4136" x2="305.643" y2="-208.306" gradientUnits="userSpaceOnUse">
            <stop stop-color="#000E2B" />
            <stop offset="1" stop-color="#000E2B" stop-opacity="0.55" />
        </linearGradient>
        <linearGradient id="paint1_linear_176_5043" x1="412" y1="190" x2="237.5" y2="190" gradientUnits="userSpaceOnUse">
            <stop stop-color="#C895FF" />
            <stop offset="1" stop-opacity="0" />
            <stop offset="1" stop-color="#440088" stop-opacity="0.7" />
        </linearGradient>
        <linearGradient id="paint2_linear_176_5043" x1="111.5" y1="280" x2="-6.60826e-06" y2="26" gradientUnits="userSpaceOnUse">
            <stop stop-color="#7A00F4" />
            <stop offset="1" stop-color="#000E2B" stop-opacity="0" />
        </linearGradient>
        <linearGradient id="paint3_linear_176_5043" x1="7" y1="-9.33175e-07" x2="52.5" y2="66" gradientUnits="userSpaceOnUse">
            <stop stop-color="white" stop-opacity="0.7" />
            <stop offset="1" stop-color="#0D0019" stop-opacity="0.7" />
        </linearGradient>
        <linearGradient id="paint4_linear_176_5043" x1="248.5" y1="153" x2="143" y2="35.5" gradientUnits="userSpaceOnUse">
            <stop stop-color="#F3F3F3" />
            <stop offset="1" stop-color="#F3F3F3" stop-opacity="0" />
        </linearGradient>
        <linearGradient id="paint5_linear_176_5043" x1="195.5" y1="185.5" x2="239.762" y2="255.765" gradientUnits="userSpaceOnUse">
            <stop stop-color="#000F2E" />
            <stop offset="1" stop-color="#000E2B" stop-opacity="0" />
        </linearGradient>
    </defs>
    
    <mask id="mask0_176_5043" style="mask-type:alpha" maskUnits="userSpaceOnUse" x="0" y="0" width="375" height="254">
        <rect width="375" height="254" fill="#C4C4C4" />
    </mask>
    <g mask="url(#mask0_176_5043)">
        <rect width="375" height="272" fill="url(#paint0_linear_176_5043)" />
        <rect x="230" y="107" width="145" height="165" fill="url(#paint1_linear_176_5043)" />
        <rect width="98" height="272" fill="url(#paint2_linear_176_5043)" />
        <rect width="59" height="66" fill="url(#paint3_linear_176_5043)" />
        <path d="M256 172C256 250.424 192.424 314 114 314C35.5756 314 -28 250.424 -28 172C-28 93.5756 35.5756 30 114 30C192.424 30 256 93.5756 256 172ZM40.7034 172C40.7034 212.481 73.5194 245.297 114 245.297C154.481 245.297 187.297 212.481 187.297 172C187.297 131.519 154.481 98.7034 114 98.7034C73.5194 98.7034 40.7034 131.519 40.7034 172Z" fill="url(#paint4_linear_176_5043)" />
        <rect y="213" width="269" height="59" fill="url(#paint5_linear_176_5043)" />
    </g>
</svg>